<?xml version="1.0"?>
<svg xmlns="http://www.w3.org/2000/svg" xmlns:xlink="http://www.w3.org/1999/xlink" version="1.1" id="Capa_1" x="0px" y="0px" viewBox="0 0 512 512" style="enable-background:new 0 0 512 512;" xml:space="preserve" width="512px" height="512px" class=""><g><g transform="matrix(1.25 0 0 -1.25 0 45)">
	<g>
		<g>
			<path style="fill:#F9FAFB" d="M409.6-328.089c0-25.134-20.378-45.511-45.511-45.511H45.511C20.378-373.6,0-353.222,0-328.089     V-9.511C0,15.622,20.378,36,45.511,36h318.578C389.222,36,409.6,15.622,409.6-9.511V-328.089z" data-original="#3B88C3" class="active-path" data-old_color="#3B88C3"/>
			<path style="fill:#050000" d="M290.133-43.644c-15.713,0-28.444-12.732-28.444-28.444v-62.578H147.911v62.578     c0,15.713-12.732,28.444-28.444,28.444S91.022-56.376,91.022-72.089v-193.422c0-15.713,12.732-28.444,28.444-28.444     s28.444,12.732,28.444,28.444v73.956h113.778v-73.956c0-15.713,12.732-28.444,28.444-28.444s28.444,12.732,28.444,28.444v193.422     C318.578-56.376,305.846-43.644,290.133-43.644" data-original="#FFFFFF" class="" data-old_color="#FFFFFF"/>
		</g>
	</g>
</g></g> </svg>
