<svg height="512pt" viewBox="-1 0 512 512" width="512pt" xmlns="http://www.w3.org/2000/svg"><path d="m10.019531 315c0 8.28125 6.722657 15 15 15h5v30h90.300781c.789063-20.21875 3.210938-40.289062 7.199219-60h-102.5c-8.277343 0-15 6.71875-15 15zm0 0"/><path d="m240.019531 360v-30h5c8.28125 0 15-6.71875 15-15s-6.71875-15-15-15h-86.828125c-4.351562 19.648438-6.980468 39.75-7.839844 60zm0 0"/><path d="m.378906 390c-.507812 3.464844-.3593748-2.300781-.3593748 87 0 19.300781 15.6992188 35 34.9999998 35h200c19.300781 0 35-15.699219 35-35 0-89.3125.148438-83.546875-.359375-87zm0 0"/><path d="m495.019531 0c-181.097656 0-332.660156 128.425781-367.5 300h30.671875c2.238282-10.113281 4.941406-20.117188 8.097656-30h88.730469c33.082031 0 65.257813-6.238281 95.632813-18.546875 5.664062-2.296875 9.367187-7.792969 9.367187-13.902344v-44.523437l34.882813 23.253906c5.390625 3.597656 12.488281 3.320312 17.589844-.6875 60.046874-47.203125 97.527343-120.023438 97.527343-200.59375 0-8.285156-6.714843-15-15-15zm0 0"/></svg>